<?xml version="1.0" encoding="UTF-8"?>
<svg version="1.1" xmlns="http://www.w3.org/2000/svg" width="42" height="42">
<path d="M0,0 L42,0 L42,42 L0,42 Z " fill="#FCFCFC" transform="translate(0,0)"/>
<path d="M0,0 L4,0 L4,1 L6,1 L6,2 L9,2 L9,1 L10,1 L10,2 L11,2 L11,4 L16,4 L16,5 L17,5 L17,3 L18,3 L18,4 L19,4 L19,3 L22,3 L22,2 L23,2 L23,1 L24,1 L24,3 L25,3 L25,6 L20,6 L20,7 L19,7 L19,8 L18,8 L18,6 L16,6 L16,8 L15,8 L15,10 L14,10 L14,12 L13,12 L13,9 L12,9 L12,10 L10,10 L10,13 L9,13 L9,15 L10,15 L10,20 L12,20 L12,15 L13,15 L13,14 L15,14 L15,13 L17,13 L17,10 L18,10 L18,16 L19,16 L19,18 L20,18 L20,19 L21,19 L21,21 L22,21 L22,22 L23,22 L23,23 L24,23 L24,24 L25,24 L25,20 L26,20 L26,24 L28,24 L28,21 L29,21 L29,15 L28,15 L28,12 L29,12 L29,14 L30,14 L30,16 L32,16 L32,15 L34,15 L34,14 L35,14 L35,13 L37,13 L37,17 L35,17 L35,16 L34,16 L34,17 L32,17 L32,18 L33,18 L33,19 L31,19 L31,22 L30,22 L30,31 L31,31 L31,33 L30,33 L30,32 L29,32 L29,30 L28,30 L28,34 L29,34 L29,36 L30,36 L30,37 L32,37 L32,36 L33,36 L33,37 L34,37 L34,38 L-1,38 L-1,36 L0,36 L0,35 L2,35 L2,34 L3,34 L3,33 L4,33 L4,27 L3,27 L3,26 L2,26 L2,24 L3,24 L3,23 L1,23 L1,20 L3,20 L3,18 L5,18 L5,17 L6,17 L6,15 L7,15 L7,14 L8,14 L8,12 L9,12 L9,10 L7,10 L7,11 L6,11 L6,12 L5,12 L5,9 L6,9 L6,8 L8,8 L8,7 L9,7 L9,5 L7,5 L7,4 L5,4 L5,5 L3,5 L3,6 L1,6 L1,9 L0,9 L0,5 L1,5 L1,4 L0,4 Z " fill="#EFE4E0" transform="translate(4,4)"/>
<path d="M0,0 L4,0 L4,1 L6,1 L6,2 L9,2 L9,1 L10,1 L10,2 L11,2 L11,4 L16,4 L16,5 L17,5 L17,3 L18,3 L18,4 L19,4 L19,3 L22,3 L22,2 L23,2 L23,1 L24,1 L24,3 L25,3 L25,6 L20,6 L20,7 L19,7 L19,8 L18,8 L18,6 L16,6 L16,8 L15,8 L15,10 L14,10 L14,12 L13,12 L13,9 L12,9 L12,10 L10,10 L10,13 L9,13 L9,15 L10,15 L10,20 L12,20 L12,21 L16,21 L16,22 L13,22 L13,24 L11,24 L11,23 L10,23 L10,26 L11,26 L11,28 L12,28 L12,29 L13,29 L13,28 L14,28 L14,29 L15,29 L15,30 L16,30 L16,35 L15,35 L15,34 L12,34 L12,33 L6,33 L6,34 L4,34 L4,35 L3,35 L3,38 L-1,38 L-1,36 L0,36 L0,35 L2,35 L2,34 L3,34 L3,33 L4,33 L4,27 L3,27 L3,26 L2,26 L2,24 L3,24 L3,23 L1,23 L1,20 L3,20 L3,18 L5,18 L5,17 L6,17 L6,15 L7,15 L7,14 L8,14 L8,12 L9,12 L9,10 L7,10 L7,11 L6,11 L6,12 L5,12 L5,9 L6,9 L6,8 L8,8 L8,7 L9,7 L9,5 L7,5 L7,4 L5,4 L5,5 L3,5 L3,6 L1,6 L1,9 L0,9 L0,5 L1,5 L1,4 L0,4 Z " fill="#D2CEDC" transform="translate(4,4)"/>
<path d="M0,0 L1,0 L1,1 L2,1 L2,3 L3,3 L3,4 L2,4 L2,8 L3,8 L3,5 L5,5 L5,4 L7,4 L7,3 L9,3 L9,4 L11,4 L11,6 L10,6 L10,7 L8,7 L8,8 L7,8 L7,11 L8,11 L8,10 L9,10 L9,9 L11,9 L11,11 L10,11 L10,13 L9,13 L9,14 L8,14 L8,16 L7,16 L7,17 L5,17 L5,19 L3,19 L3,22 L5,22 L5,23 L4,23 L4,25 L5,25 L5,26 L6,26 L6,32 L5,32 L5,33 L4,33 L4,34 L2,34 L2,35 L1,35 L1,37 L-2,37 L-2,2 L-1,2 L-1,3 L0,3 Z " fill="#F9F9FA" transform="translate(2,5)"/>
<path d="M0,0 L1,0 L1,2 L2,2 L2,4 L4,4 L4,3 L6,3 L6,2 L7,2 L7,1 L9,1 L9,5 L7,5 L7,4 L6,4 L6,5 L4,5 L4,6 L5,6 L5,7 L3,7 L3,10 L2,10 L2,19 L3,19 L3,21 L2,21 L2,20 L1,20 L1,18 L0,18 L0,22 L1,22 L1,24 L2,24 L2,25 L4,25 L4,24 L5,24 L5,25 L6,25 L6,26 L-4,26 L-4,24 L-5,24 L-5,23 L-6,23 L-6,22 L-11,22 L-11,19 L-9,19 L-9,18 L-7,18 L-7,17 L-5,17 L-5,15 L-3,15 L-3,14 L-4,14 L-4,13 L-5,13 L-5,12 L-7,12 L-7,10 L-10,10 L-10,9 L-9,9 L-9,7 L-7,7 L-7,9 L-6,9 L-6,10 L-5,10 L-5,11 L-4,11 L-4,12 L-3,12 L-3,8 L-2,8 L-2,12 L0,12 L0,9 L1,9 L1,3 L0,3 Z " fill="#CFC3D3" transform="translate(32,16)"/>
<path d="M0,0 L1,0 L1,23 L-3,23 L-3,22 L-4,22 L-4,21 L-5,21 L-5,22 L-7,22 L-7,21 L-8,21 L-8,19 L-9,19 L-9,15 L-8,15 L-8,17 L-7,17 L-7,18 L-6,18 L-6,16 L-7,16 L-7,7 L-6,7 L-6,4 L-4,4 L-4,3 L-5,3 L-5,2 L-3,2 L-3,1 L-2,1 L-2,2 L0,2 Z " fill="#F9F9FA" transform="translate(41,19)"/>
<path d="M0,0 L4,0 L4,1 L6,1 L6,2 L10,2 L10,3 L7,3 L7,5 L5,5 L5,4 L4,4 L4,7 L5,7 L5,9 L6,9 L6,10 L7,10 L7,9 L8,9 L8,10 L9,10 L9,11 L10,11 L10,16 L9,16 L9,15 L6,15 L6,14 L0,14 L0,15 L-2,15 L-2,16 L-3,16 L-3,19 L-7,19 L-7,17 L-6,17 L-6,16 L-4,16 L-4,15 L-3,15 L-3,14 L-2,14 L-2,8 L-3,8 L-3,7 L-4,7 L-4,5 L-3,5 L-3,2 L-1,2 L-1,1 L0,1 Z " fill="#D1C4CD" transform="translate(10,23)"/>
<path d="M0,0 L1,0 L1,2 L2,2 L2,4 L4,4 L4,3 L6,3 L6,2 L7,2 L7,1 L9,1 L9,5 L7,5 L7,4 L6,4 L6,5 L4,5 L4,6 L5,6 L5,7 L3,7 L3,10 L2,10 L2,19 L3,19 L3,21 L2,21 L2,20 L1,20 L1,18 L0,18 L0,20 L-1,20 L-1,17 L1,17 L1,16 L0,16 L0,15 L-1,15 L-1,13 L-2,13 L-2,15 L-3,15 L-3,14 L-4,14 L-4,13 L-5,13 L-5,12 L-7,12 L-7,10 L-10,10 L-10,9 L-9,9 L-9,7 L-7,7 L-7,9 L-6,9 L-6,10 L-5,10 L-5,11 L-4,11 L-4,12 L-3,12 L-3,8 L-2,8 L-2,12 L0,12 L0,9 L1,9 L1,3 L0,3 Z M-5,15 L-3,15 L-3,16 L-5,16 Z " fill="#E1DCE2" transform="translate(32,16)"/>
<path d="M0,0 L1,0 L1,20 L0,20 L0,19 L-1,19 L-1,18 L-2,18 L-2,17 L-3,17 L-3,14 L-4,14 L-4,12 L-5,12 L-5,11 L-4,11 L-4,10 L-3,10 L-3,8 L-2,8 L-2,6 L-3,6 L-3,4 L-4,4 L-4,3 L-5,3 L-5,2 L-3,2 L-3,1 L-2,1 L-2,2 L0,2 Z " fill="#E5ECF9" transform="translate(41,19)"/>
<path d="M0,0 L1,0 L1,1 L2,1 L2,2 L3,2 L3,3 L4,3 L4,5 L5,5 L5,9 L4,9 L4,10 L1,10 L1,11 L-1,11 L-1,12 L-2,12 L-2,15 L-6,15 L-6,13 L-5,13 L-5,12 L-3,12 L-3,11 L-2,11 L-2,10 L-1,10 L-1,4 L-2,4 L-2,3 L-3,3 L-3,1 L-2,1 L-2,2 L-1,2 L-1,1 L0,1 Z " fill="#CEC0D3" transform="translate(9,27)"/>
<path d="M0,0 L1,0 L1,1 L2,1 L2,0 L3,0 L3,1 L4,1 L4,7 L3,7 L3,8 L2,8 L2,9 L0,9 L0,10 L-1,10 L-1,12 L-4,12 L-4,5 L-3,5 L-3,3 L-2,3 L-2,1 L0,1 Z " fill="#E6E3E9" transform="translate(4,30)"/>
<path d="M0,0 L4,0 L4,2 L6,2 L6,3 L7,3 L7,4 L8,4 L8,5 L6,5 L6,7 L4,7 L4,8 L-2,8 L-2,7 L-3,7 L-3,5 L-4,5 L-4,3 L-3,3 L-3,1 L0,1 Z " fill="#FCF4EB" transform="translate(21,26)"/>
<path d="M0,0 L4,0 L4,1 L6,1 L6,2 L9,2 L9,1 L10,1 L10,2 L11,2 L11,5 L13,5 L13,6 L12,6 L12,7 L10,7 L10,5 L7,5 L7,4 L5,4 L5,5 L3,5 L3,6 L1,6 L1,9 L0,9 L0,5 L1,5 L1,4 L0,4 Z " fill="#85859D" transform="translate(4,4)"/>
<path d="M0,0 L7,0 L7,6 L6,6 L6,4 L4,4 L4,5 L3,5 L3,6 L1,6 L1,7 L-1,7 L-1,5 L-2,5 L-2,4 L1,4 L1,3 L2,3 L2,2 L-1,2 L-1,1 L0,1 Z " fill="#F0F9FC" transform="translate(35,13)"/>
<path d="M0,0 L1,0 L1,2 L3,2 L3,3 L2,3 L2,4 L4,4 L4,6 L5,6 L5,8 L6,8 L6,9 L3,9 L3,7 L2,7 L2,6 L1,6 L1,5 L-4,5 L-4,2 L-2,2 L-2,1 L0,1 Z " fill="#C7D4F1" transform="translate(25,33)"/>
<path d="M0,0 L1,0 L1,4 L2,4 L2,10 L3,10 L3,11 L1,11 L1,7 L0,7 L0,11 L-1,11 L-1,10 L-2,10 L-2,9 L-3,9 L-3,8 L-4,8 L-4,5 L-1,5 L-1,3 L0,3 Z " fill="#F8F0ED" transform="translate(29,17)"/>
<path d="M0,0 L2,0 L2,2 L3,2 L3,3 L4,3 L4,4 L5,4 L5,5 L6,5 L6,1 L7,1 L7,5 L9,5 L9,3 L10,3 L10,7 L9,7 L9,8 L8,8 L8,6 L7,6 L7,8 L6,8 L6,7 L5,7 L5,6 L4,6 L4,5 L2,5 L2,3 L-1,3 L-1,2 L0,2 Z M4,8 L6,8 L6,9 L4,9 Z " fill="#E5D4D6" transform="translate(23,23)"/>
<path d="M0,0 L2,0 L2,4 L3,4 L3,6 L2,6 L2,7 L0,7 L0,8 L-1,8 L-1,10 L-2,10 L-2,9 L-3,9 L-3,7 L-1,7 L-1,6 L0,6 L0,5 L-3,5 L-3,4 L-2,4 L-2,3 L-1,3 L-1,1 L0,1 Z " fill="#F8F7FA" transform="translate(4,32)"/>
<path d="M0,0 L3,0 L3,7 L2,7 L2,6 L1,6 L1,5 L0,5 L0,4 L-1,4 L-1,5 L-2,5 L-2,6 L-3,6 L-3,2 L-1,2 L-1,1 L0,1 Z " fill="#B6A3B5" transform="translate(10,23)"/>
<path d="M0,0 L1,0 L1,2 L2,2 L2,3 L1,3 L1,4 L0,4 L0,5 L-2,5 L-2,6 L-3,6 L-3,7 L-4,7 L-4,6 L-7,6 L-7,4 L-8,4 L-8,3 L-3,3 L-3,2 L-2,2 L-2,3 L-1,3 L-1,2 L0,2 Z " fill="#E8E3E9" transform="translate(8,14)"/>
<path d="M0,0 L1,0 L1,1 L2,1 L2,2 L3,2 L3,3 L4,3 L4,5 L5,5 L5,9 L4,9 L4,10 L2,10 L2,7 L1,7 L1,5 L2,5 L2,4 L1,4 L1,3 L0,3 Z " fill="#D4DAF0" transform="translate(9,27)"/>
<path d="M0,0 L1,0 L1,1 L2,1 L2,2 L1,2 L1,4 L0,4 L0,5 L-1,5 L-1,6 L-4,6 L-4,8 L-5,8 L-5,10 L-4,10 L-4,11 L-5,11 L-5,12 L-6,12 L-6,11 L-7,11 L-7,9 L-8,9 L-8,6 L-7,6 L-7,7 L-5,7 L-5,5 L-2,5 L-2,4 L-1,4 L-1,3 L0,3 Z " fill="#F3E3DF" transform="translate(22,21)"/>
<path d="M0,0 L3,0 L3,2 L4,2 L4,4 L5,4 L5,5 L7,5 L7,4 L8,4 L8,5 L9,5 L9,6 L2,6 L2,5 L1,5 L1,3 L0,3 Z " fill="#CABCCE" transform="translate(29,36)"/>
<path d="M0,0 L1,0 L1,1 L2,1 L2,3 L3,3 L3,4 L2,4 L2,6 L0,6 L0,10 L-1,10 L-1,7 L-2,7 L-2,2 L-1,2 L-1,3 L0,3 Z " fill="#E6F5FB" transform="translate(2,5)"/>
<path d="M0,0 L3,0 L3,1 L4,1 L4,2 L5,2 L5,4 L-4,4 L-4,2 L-1,2 L-1,3 L1,3 L1,2 L0,2 Z " fill="#F9F3EA" transform="translate(23,38)"/>
<path d="M0,0 L2,0 L2,1 L5,1 L5,4 L-3,4 L-3,3 L-2,3 L-2,2 L-1,2 L-1,1 L0,1 Z " fill="#FEF5EB" transform="translate(13,38)"/>
<path d="M0,0 L1,0 L1,2 L3,2 L3,3 L0,3 L0,4 L-1,4 L-1,5 L-3,5 L-3,7 L-5,7 L-5,4 L-3,4 L-3,2 L-1,2 L-1,1 L0,1 Z " fill="#D5C6D3" transform="translate(10,20)"/>
<path d="M0,0 L1,0 L1,1 L2,1 L2,0 L3,0 L3,1 L4,1 L4,2 L5,2 L5,7 L4,7 L4,4 L0,4 Z " fill="#E7C1BB" transform="translate(15,32)"/>
<path d="M0,0 L1,0 L1,1 L2,1 L2,4 L1,4 L1,5 L-4,5 L-4,4 L-3,4 L-3,3 L-2,3 L-2,2 L-1,2 L-1,1 L0,1 Z " fill="#FDF5EB" transform="translate(20,20)"/>
<path d="M0,0 L2,0 L2,4 L0,4 L0,3 L-1,3 L-1,4 L-3,4 L-3,5 L-2,5 L-2,6 L-4,6 L-4,3 L-3,3 L-3,2 L-1,2 L-1,1 L0,1 Z " fill="#A8A9B3" transform="translate(39,17)"/>
<path d="M0,0 L1,0 L1,3 L0,3 L0,5 L1,5 L1,9 L0,9 L0,8 L-2,8 L-2,6 L-3,6 L-3,5 L-2,5 L-2,4 L-1,4 L-1,2 L0,2 Z " fill="#E6E1E8" transform="translate(13,14)"/>
<path d="M0,0 L5,0 L5,1 L4,1 L4,2 L3,2 L3,3 L2,3 L2,4 L-1,4 L-1,1 L0,1 Z " fill="#FBE8E0" transform="translate(8,38)"/>
<path d="M0,0 L1,0 L1,2 L2,2 L2,3 L4,3 L4,5 L5,5 L5,6 L4,6 L4,7 L2,7 L2,6 L1,6 L1,4 L0,4 Z " fill="#F3F2F3" transform="translate(32,34)"/>
</svg>
